<svg height="512" viewBox="0 0 58 58" width="512" xmlns="http://www.w3.org/2000/svg"><g id="012---Bengal-Tiger" fill="none"><path id="Shape" d="m54.07 17.73c4.59-7.37 4.48-11.87 3-15.34-.4415858-1.03934527-1.3140701-1.83473494-2.3897197-2.17855862-1.0756495-.34382368-2.2477198-.2019613-3.2102803.38855862-14.75 10.4-13.36 9.4-13.19 9.46-5.9733022-2.7945051-12.8889326-2.74306045-18.82.14.13-.06.25-.14.37-.2l-13.3-9.4c-.96623738-.60889083-2.15166042-.76115537-3.24041396-.41622283s-1.97023931 1.15202305-2.40958604 2.20622283c-1.43 3.47-1.54 7.97 3.05 15.34-3.34 5.27-4.83 13.48-3.37 22 .05763.3735096.32090608.6826214.68048491.7989557.35957884.1163343.75402394.0200147 1.01951509-.2489557.23548039-.2577048.60580385-.3429087.93022995-.2140271s.53532694.4449829.52977005.7940271c.04338433 5.0912359 1.91758574 9.9968161 5.28 13.82.34916223.3645896.91530794.4117684 1.32.11l2.66-2c.2873884-.2171955.669384-.2630349 1-.12.9.41 2.75 1.28 4.33 2.21 3.2076173 2.0054952 6.9071951 3.0852597 10.69 3.12 3.7795874-.0257475 7.4774764-1.1025672 10.68-3.11 1.4006681-.8111438 2.84262-1.548809 4.32-2.21.330616-.1430349.7126116-.0971955 1 .12l2.66 2c.4108325.3113534.9910256.2593958 1.34-.12 3.3624143-3.8231839 5.2366157-8.7287641 5.28-13.82-.0055569-.3490442.2053439-.6651455.5297701-.7940271.3244261-.1288816.6947495-.0436777.9302299.2140271.2654912.2689704.6599363.36529 1.0195151.2489557s.6228549-.4254461.6804849-.7989557c1.46-8.52-.03-16.73-3.37-22zm-47.45 14.17c.20650611 1.290182.54150595 2.5564814 1 3.78-.45849405-1.2235186-.79349389-2.489818-1-3.78zm44.68-4.9c-.0683622-.578404-.1685137-1.152606-.3-1.72.1314863.567394.2316378 1.141596.3 1.72zm-.66 7.76c0-.07 0-.15.07-.23-.02.11-.05.19-.07.26zm.82-4.89v.25c0-.05-.01-.12 0-.22zm0 .38c0 .28 0 .56-.07.83.02-.24.05-.52.06-.8zm-.09 1.11c0 .23-.07.46-.1.7.02-.21.06-.44.09-.67zm-.16 1.08c0 .19-.07.37-.11.56.03-.16.07-.34.1-.53zm-.21 1.09c0 .13-.08.27-.11.4.02-.13.11-.27.11-.4zm-1.74-12.72c.08.14.15.29.22.43-.07-.14-.14-.24-.22-.43zm-1-1.81v.06zm-43.86-.52c.26.39.52.79.8 1.2-.28-.41-.54-.81-.8-1.2zm4.22 19.52c3 6.1 8.05 10.15 8.45 10.76-1.64-1.64-5.83-5.47-8.45-10.76zm9.69 16.85-.31-.15.31.18c.6616751-1.6302583.5362787-3.4743226-.34-5 .8646912 1.5291725.9897211 3.3678475.34 5zm21.71-5c-.8730104 1.5272492-.9947152 3.3712609-.33 5l.31-.15-.31.18c-.6551167-1.6180514-.5411062-3.4458982.31-4.97zm.91-1.12c.14-.22 2.31-2.13 4.52-4.82-1.4213698 1.7036426-2.930059 3.3324929-4.52 4.88zm12.67-30.25-.8 1.2z" fill="#ecf0f1"/><path id="Shape" d="m40.62 49.11c-1.3751928 1.5931772-1.7349832 3.8254252-.93 5.77l.31-.18c-6.6746499 4.3956092-15.3253501 4.3956092-22 0l.31.18c.8049832-1.9445748.4451928-4.1768228-.93-5.77-2.11-2.3-12.28-10.82-10.84-22.11 2.46-11.85 12.88-19.61 23.46-19 9.2073866.5492681 17.2045529 6.5255182 20.34 15.2 4.86 13.22-7.34 23.35-9.72 25.91z" fill="#e57e25"/><path id="Shape" d="m30 8v14.58c0 .5522847-.4477153 1-1 1s-1-.4477153-1-1v-14.58z" fill="#35495e"/><path id="Shape" d="m29.08 16.54c-.28 0 .14.13-6.46-2.62-.3637503-.110784-.6331958-.4182807-.6952472-.79343-.0620513-.3751493.0940298-.7530299.4027343-.9750409.3087046-.222011.7166097-.2497324 1.0525129-.0715291l5.7 2.37 5.53-2.37c.3316478-.1560074.7220669-.1180873 1.0174942.0988257.2954274.2169129.4485222.5780598.3989895.9412058-.0495327.3631461-.2937557.6700992-.6364837.7999685-6.31 2.7-6.01 2.62-6.31 2.62z" fill="#35495e"/><path id="Shape" d="m29.17 21.71c-.11 0 .76.12-12.31-1.72-.3572656-.0500172-.6607088-.2868339-.7960254-.6212436-.1353166-.3344096-.0819489-.7156075.14-1 .2219489-.2843924.5787598-.4287736.9360254-.3787564l12 1.69 11.72-1.68c.5522847-.0773199 1.0626801.3077153 1.14.86s-.3077153 1.0626801-.86 1.14c-12.6 1.81-11.86 1.71-11.97 1.71z" fill="#35495e"/><path id="Shape" d="m44 24.25c.1891524 1.1775016-.1437719 2.3790076-.9119665 3.2912387-.7681946.9122312-1.8955182 1.4447694-3.0880335 1.4587613-1.7648351-.0062288-3.3170298-1.1683431-3.82-2.86z" fill="#35495e"/><path id="Shape" d="m14.05 24.25c-.1915132 1.1695923.1337292 2.3647492.8915114 3.2760063.7577823.9112571 1.873584 1.4490014 3.0584886 1.4739937 1.7611297-.010625 3.308101-1.1718685 3.81-2.86z" fill="#35495e"/><path id="Shape" d="m22.59 36.89c-.3194066.0119335-.6252735-.1295374-.8230094-.3806619-.1977358-.2511246-.2635134-.5816421-.1769906-.8893381l2.15-7.94-10.98-2.68c-.2946645-.073828-.5397954-.277593-.6662297-.5538033s-.1204628-.5949165.0162297-.8661967l1-2c.1440974-.3460386.4696151-.5824323.8432591-.6123817s.73266.1515756.9300368.4702434c.1973769.3186678.1999648.7209575.0067041 1.0421383l-.43.87 9.8 2.38c.5285264.1307866.9808872.4713989 1.2526432.9431975s.3394153 1.033999.1873568 1.5568025l-2.15 8c-.1455822.4029291-.5316588.6683567-.96.66z" fill="#d25627"/><path id="Shape" d="m35.44 36.75c-.4648688.0159235-.8793359-.2907821-1-.74l-2.17-7.8c-.1526395-.5200459-.0876838-1.0797736.1799966-1.5510419s.715163-.8137208 1.2400034-.9489581l9.81-2.39-.43-.87c-.2013504-.4835272.0045141-1.0404963.4719378-1.2768341s1.0380149-.0719586 1.3080622.3768341l1 2c.1490542.2683745.1665805.590341.0475386.8733094-.1190418.2829683-.3614593.4955792-.6575386.5766906l-11 2.68 2.18 7.83c.0741987.3000688.0054592.6175851-.1862036.8600972-.1916627.242512-.4847033.3827582-.7937964.3799028z" fill="#d25627"/><path id="Shape" d="m57.12 2.39c-.4393467-1.05419978-1.3208325-1.86129029-2.409586-2.20622283-1.0887536-.34493254-2.2741766-.192668-3.240414.41622283l-13.3 9.4c5.6148583 2.668424 9.979538 7.4057857 12.18 13.22.15-.19-.28.42 2.45-3.54 5.89-8.55 5.87-13.52 4.32-17.29z" fill="#35495e"/><path id="Shape" d="m47.67 18.11c.436953-.4031339.8509372-.8304725 1.24-1.28 5.09-5.83 4.33-10.14 3.18-12.97-.67-1.65-2.57-1.71-4.07-.75l-9.85 6.89c3.8228216 1.8238502 7.098983 4.6206574 9.5 8.11z" fill="#f29c1f"/><path id="Shape" d="m7.66 23.22c2.19716999-5.8129746 6.5582915-10.5503638 12.17-13.22l-13.3-9.4c-.96623738-.60889083-2.15166042-.76115537-3.24041396-.41622283s-1.97023931 1.15202305-2.40958604 2.20622283c-1.55 3.77-1.57 8.74 4.32 17.29 2.8 4.1 2.35 3.41 2.46 3.54z" fill="#35495e"/><path id="Shape" d="m10.33 18.11c2.3985484-3.4915663 5.6753695-6.2889368 9.5-8.11l-9.83-6.89c-1.5-1-3.4-.9-4.07.75-1.17 2.83-1.93 7.14 3.16 12.97.38906276.4495275.80304701.8768661 1.24 1.28z" fill="#f29c1f"/><g fill="#35495e"><path id="Shape" d="m42 35c-.5522847 0-1-.4477153-1-1s.4477153-1 1-1c3.5893693-.2024958 6.814061-2.260084 8.51-5.43.1536242-.3233254.4680708-.5401328.8248909-.568753s.7018042.1352949.905.43c.2031959.2947052.2337333.6754276.0801091.998753-2.0343675 3.8625022-5.9594911 6.3613454-10.32 6.57z"/><path id="Shape" d="m44 39c-.5522847 0-1-.4477153-1-1s.4477153-1 1-1c1.920313.1121601 3.8325254-.3285858 5.51-1.27.4804877-.2761424 1.0938576-.1104877 1.37.37s.1104877 1.0938576-.37 1.37c-1.9835757 1.1104181-4.2394564 1.6406021-6.51 1.53z"/><path id="Shape" d="m15.88 35c-4.3605089-.2086546-8.2856325-2.7074978-10.32-6.57-.24024487-.489164-.04457338-1.0806255.44-1.33.23984696-.1165059.51629088-.1323974.76790853-.0441435.25161764.088254.45756823.2733435.57209147.5141435 1.69991547 3.1801025 4.9390918 5.2396724 8.54 5.43.5522847 0 1 .4477153 1 1s-.4477153 1-1 1z"/><path id="Shape" d="m14 39c-2.2604771.1049373-4.50518744-.4250638-6.48-1.53-.48048773-.2761424-.64614237-.8895123-.37-1.37s.88951227-.6461424 1.37-.37c1.6687376.9358184 3.5697317 1.3763773 5.48 1.27.5522847 0 1 .4477153 1 1s-.4477153 1-1 1z"/><path id="Shape" d="m47 28c-.5522847 0-1-.4477153-1-1s.4477153-1 1-1c.85 0 2.15-1.5 2.76-2.51.1487736-.3609297.4939823-.6022843.8840516-.6180897s.7536733.1968285.9311606.5445384c.1774873.3477098.1364035.7669152-.1052122 1.0735513-.35.61-2.21 3.51-4.47 3.51z"/><path id="Shape" d="m11 28c-2.26 0-4.12-2.9-4.47-3.48-.21118959-.4672916-.03468119-1.0186013.40863697-1.2763444.44331817-.2577431 1.00975392-.1383777 1.31136303.2763444.59.98 1.88 2.48 2.75 2.48.5522847 0 1 .4477153 1 1s-.4477153 1-1 1z"/></g><path id="Shape" d="m29 42-7-4c-.28-.17-1 1-1.95 1-3.1119843 1.2068698-4.8359156 4.54444-4.0189187 7.7807183.8169968 3.2362783 3.9185334 5.3556615 7.2304641 4.9408171s5.7949115-3.2337308 5.7884546-6.5715354c0-.18 0-2 0-2.15-.21 0 .1-.91-.05-1z" fill="#f29c1f"/><path id="Shape" d="m38 39c-1 0-1.67-1.17-2-1l-7 5c-.15.09.16 1 0 1v1.15c.0751517 3.2399609 2.5254701 5.9295673 5.7444349 6.3054127s6.2230004-1.6769122 7.0425486-4.8124082c.8195482-3.1354959-.7958092-6.3956591-3.7869835-7.6430045z" fill="#f29c1f"/><path id="Shape" d="m29 35c2.7392604.0534921 5.4621459.4362405 8.11 1.14.5653385.2001381.928856.7515411.89 1.35v.81c.0189952.4921645-.2148713.9598974-.62 1.24l-7.88 4.85c-.3094011.1786328-.6905989.1786328-1 0l-7.88-4.85c-.4051287-.2801026-.6389952-.7478355-.62-1.24v-.73c-.0494086-.6213208.3425172-1.1925317.94-1.37 2.6585445-.5702764 5.3506327-.9710836 8.06-1.2z" fill="#35495e"/><path id="Shape" d="m54.07 17.73c-1 1.66-3.57 5.3-3.72 5.49 4.84 13.21-7.35 23.33-9.73 25.89-1.3751928 1.5931772-1.7349832 3.8254252-.93 5.77 1.25-.74 3-1.6 4.33-2.2.330616-.1430349.7126116-.0971955 1 .12l2.66 2c.4071322.2992144.9734988.2477265 1.32-.12 3.3624143-3.8231839 5.2366157-8.7287641 5.28-13.82-.0055569-.3490442.2053439-.6651455.5297701-.7940271.3244261-.1288816.6947495-.0436777.9302299.2140271.2654912.2689704.6599363.36529 1.0195151.2489557s.6228549-.4254461.6804849-.7989557c1.46-8.52-.03-16.73-3.37-22z" fill="#ecf0f1"/><path id="Shape" d="m17.38 49.11c-2.11-2.3-12.29-10.83-10.84-22.11.27452305-1.287194.64899121-2.551024 1.12-3.78-.15-.18-2.6-3.68-3.73-5.49-3.34 5.27-4.83 13.48-3.37 22 .05763.3735096.32090608.6826214.68048491.7989557.35957884.1163343.75402394.0200147 1.01951509-.2489557.23548039-.2577048.60580385-.3429087.93022995-.2140271s.53532694.4449829.52977005.7940271c.04338433 5.0912359 1.91758574 9.9968161 5.28 13.82.34916223.3645896.91530794.4117684 1.32.11l2.66-2c.2873884-.2171955.669384-.2630349 1-.12 1.66.75 3.53 1.72 4.33 2.2.8008371-1.9417716.441244-4.168929-.93-5.76z" fill="#ecf0f1"/></g></svg>